<svg xmlns="http://www.w3.org/2000/svg" xmlns:xlink="http://www.w3.org/1999/xlink" width="254" height="836" viewBox="0 0 254 836"><svg width="86" height="86" viewBox="-5 -5 86 86" id="arrow_mint" y="0"><title>Group 2</title><g fill="#04FCBF" fill-rule="evenodd"><path d="M38 76C17.013 76 0 58.987 0 38S17.013 0 38 0s38 17.013 38 38-17.013 38-38 38zm0-3c19.33 0 35-15.67 35-35S57.33 3 38 3 3 18.67 3 38s15.67 35 35 35z" fill-rule="nonzero"></path><g transform="translate(21 30)"><path d="M33 8l-16 8V0zM0 6h17v3H0z"></path></g></g></svg><svg width="39" height="22" viewBox="-5 -5 39 22" id="arrow_right_black" y="86"><title>Arrow</title><g fill="#000" fill-rule="evenodd"><path d="M29 6l-12 6V0zM0 5h17v2H0z"></path></g></svg><svg width="39" height="22" viewBox="-5 -5 39 22" id="arrow_right_mint" y="108"><title>Arrow</title><g fill="#00CB99" fill-rule="evenodd"><path d="M29 6l-12 6V0zM0 5h17v2H0z"></path></g></svg><svg id="badge_logo" width="254" height="158" viewBox="-5 -5 254 158" y="130"><style>.st0{fill:#f5fafc}.st1{stroke-width:2.5}.st1,.st2,.st3{fill:none;stroke:#00cb99}.st2{stroke-linecap:square;stroke-width:2.5}.st3{stroke-width:2}.st4{enable-background:new}.st5{fill:#00cb99}</style><title>Slogan Circle</title><path id="Rectangle-6" class="st0" d="M0 53h244v43H0z"></path><circle id="Oval-4" class="st0" cx="122" cy="74" r="74"></circle><circle id="Oval-2" class="st1" cx="121.5" cy="72.5" r="55.5"></circle><path id="Line-4" class="st2" d="M101 71l47-47"></path><path id="Line-4_1_" class="st2" d="M122 50l48 48"></path><path id="Line-4_2_" class="st2" d="M74 45l48 48"></path><path id="Path-3" class="st3" d="M53.1 84H10"></path><path id="Path-3-Copy" class="st3" d="M53.1 64H10"></path><path id="Path-3_1_" class="st3" d="M231.1 84H188"></path><path id="Path-3-Copy_1_" class="st3" d="M231.1 64H188"></path><path id="Line-4_3_" class="st2" d="M143 73l-48 48"></path><g class="st4"><path class="st5" d="M112 73.2V76h-1.5v-8h2.6c.5 0 1 .1 1.4.2.4.1.7.3 1 .5s.4.5.6.8c.1.3.2.7.2 1 0 .4-.1.7-.2 1.1-.1.3-.3.6-.6.8-.3.2-.6.4-1 .5-.4.1-.8.2-1.4.2H112zm0-1.2h1.1c.3 0 .5 0 .7-.1.2-.1.4-.2.5-.3.1-.1.2-.3.3-.5.1-.2.1-.4.1-.6 0-.2 0-.4-.1-.6-.1-.2-.2-.3-.3-.4-.1-.1-.3-.2-.5-.3s-.4-.1-.7-.1H112V72zM117 68h1.2c.1 0 .2 0 .3.1l.2.2 1.4 4.8c0 .1.1.2.1.4 0 .1.1.3.1.4 0-.2.1-.3.1-.4 0-.1.1-.3.1-.4l1.6-4.8c0-.1.1-.2.2-.2.1-.1.2-.1.3-.1h.4c.1 0 .2 0 .3.1l.2.2 1.6 4.8c.1.2.2.5.2.8 0-.1.1-.3.1-.4 0-.1.1-.3.1-.4l1.4-4.8c0-.1.1-.2.2-.2.1-.1.2-.1.3-.1h1.2l-2.5 8h-1.3l-1.7-5.4c0-.1 0-.1-.1-.2 0-.1 0-.2-.1-.3 0 .1 0 .2-.1.3 0 .1 0 .2-.1.2l-1.8 5.4h-1.3l-2.6-8z"></path></g><path class="st4 st5" d="M131.7 73.2V76h-1.5v-8h2.6c.5 0 1 .1 1.4.2.4.1.7.3 1 .5s.4.5.6.8.2.7.2 1c0 .4-.1.7-.2 1.1-.1.3-.3.6-.6.8-.3.2-.6.4-1 .5-.4.1-.8.2-1.4.2h-1.1zm0-1.2h1.1c.3 0 .5 0 .7-.1.2-.1.4-.2.5-.3.1-.1.2-.3.3-.5.1-.2.1-.4.1-.6 0-.2 0-.4-.1-.6-.1-.2-.2-.3-.3-.4-.1-.1-.3-.2-.5-.3-.2-.1-.4-.1-.7-.1h-1.1V72z"></path><g class="st4"><path class="st5" d="M21.4 69.3v1.3h-3.8V73h3v1.2h-3v2.5h3.8V78H16v-8.7h5.4zM29 70.9c0 .1-.1.1-.2.2s-.1.1-.2.1-.2 0-.3-.1c-.1-.1-.2-.1-.4-.2-.1-.1-.3-.1-.5-.2s-.4-.1-.6-.1c-.2 0-.4 0-.6.1s-.3.1-.4.2l-.3.3c-.1.1-.1.3-.1.4 0 .2.1.4.2.5.1.1.3.3.5.3l.6.3c.2.1.5.2.7.2s.5.2.7.3c.2.1.5.3.6.4.2.2.3.4.5.6.1.3.2.6.2.9 0 .4-.1.8-.2 1.1s-.2.8-.5 1.1c-.3.3-.6.5-.9.6-.4.1-.8.2-1.3.2-.3 0-.5 0-.8-.1-.3-.1-.5-.1-.8-.2-.2-.1-.5-.2-.7-.4-.2-.1-.4-.3-.6-.5l.5-.8c0-.1.1-.1.2-.1s.1-.1.2-.1.2 0 .3.1c.1.1.3.2.4.3.2.1.3.2.6.3.2.1.5.1.8.1.5 0 .8-.1 1.1-.3s.4-.5.4-.9c0-.2-.1-.4-.2-.6-.1-.1-.3-.3-.5-.4-.2-.1-.4-.2-.6-.2-.2-.1-.5-.1-.7-.2s-.5-.2-.7-.3c-.2-.1-.5-.3-.6-.4-.2-.2-.3-.4-.5-.7-.1-.3-.2-.6-.2-1 0-.3.1-.6.2-.9s.3-.6.6-.8c.2-.2.5-.4.9-.6.4-.1.8-.2 1.2-.2.5 0 1 .1 1.4.2.4.2.8.4 1.1.7l-.5.8zM38.4 69.3v1.3h-2.6V78h-1.6v-7.3h-2.6v-1.3h6.8zM48.6 73.7c0 .6-.1 1.2-.3 1.8-.2.5-.5 1-.9 1.4-.4.4-.8.7-1.4.9-.5.2-1.1.3-1.8.3h-3.3v-8.7h3.3c.7 0 1.3.1 1.8.3.5.2 1 .5 1.4.9.4.4.7.8.9 1.4.2.4.3 1 .3 1.7zm-1.6 0c0-.5-.1-.9-.2-1.3s-.3-.7-.5-1-.5-.5-.9-.6c-.3-.1-.7-.2-1.1-.2h-1.7v6.1h1.7c.4 0 .8-.1 1.1-.2.3-.1.6-.3.9-.6.2-.3.4-.6.5-1 .1-.3.2-.8.2-1.2z"></path></g><g class="st4"><path class="st5" d="M198.8 69.2c.4 0 .8.1 1.1.2s.6.3.9.5c.2.2.4.5.6.8.1.3.2.6.2 1 0 .3 0 .6-.1.9-.1.3-.2.5-.4.8s-.3.5-.6.7c-.2.2-.4.5-.7.7l-2 2c.2-.1.4-.1.6-.1h2.7c.2 0 .3 0 .4.1s.1.2.1.4v.8h-6v-.5c0-.1 0-.2.1-.3 0-.1.1-.2.2-.3l2.6-2.6.6-.6c.2-.2.3-.4.4-.6l.3-.6c.1-.2.1-.4.1-.7 0-.2 0-.4-.1-.5-.1-.2-.1-.3-.3-.4-.1-.1-.2-.2-.4-.2-.2-.1-.3-.1-.5-.1-.4 0-.6.1-.9.3-.2.2-.4.4-.5.7 0 .2-.1.3-.2.3-.1.1-.2.1-.3.1h-.2l-.8-.1c.1-.4.2-.8.3-1.1.2-.3.4-.6.6-.8s.6-.4.9-.5c.6-.2 1-.3 1.3-.3zM209.3 73.7c0 .8-.1 1.4-.2 2-.2.6-.4 1-.7 1.4-.3.4-.6.6-1 .8-.4.2-.8.3-1.3.3s-.9-.1-1.3-.3c-.4-.2-.7-.4-1-.8-.3-.4-.5-.8-.7-1.4-.2-.6-.2-1.2-.2-2s.1-1.4.2-2c.2-.6.4-1 .7-1.4.3-.4.6-.6 1-.8.4-.2.8-.3 1.3-.3s.9.1 1.3.3c.4.2.7.4 1 .8.3.4.5.8.7 1.4.2.5.2 1.2.2 2zm-1.5 0c0-.6 0-1.1-.1-1.6-.1-.4-.2-.7-.4-1-.2-.2-.3-.4-.5-.5-.2-.1-.4-.1-.6-.1-.2 0-.4 0-.6.1-.2.1-.4.3-.5.5-.2.2-.3.6-.4 1-.1.4-.1.9-.1 1.6s0 1.1.1 1.6c.1.4.2.7.4 1 .2.2.3.4.5.5.2.1.4.1.6.1.2 0 .4 0 .6-.1.2-.1.4-.3.5-.5.2-.2.3-.6.4-1 .1-.5.1-1 .1-1.6zM216.8 73.7c0 .8-.1 1.4-.2 2-.2.6-.4 1-.7 1.4-.3.4-.6.6-1 .8-.4.2-.8.3-1.3.3s-.9-.1-1.3-.3c-.4-.2-.7-.4-1-.8-.3-.4-.5-.8-.7-1.4-.2-.6-.2-1.2-.2-2s.1-1.4.2-2c.2-.6.4-1 .7-1.4.3-.4.6-.6 1-.8.4-.2.8-.3 1.3-.3s.9.1 1.3.3c.4.2.7.4 1 .8.3.4.5.8.7 1.4.1.5.2 1.2.2 2zm-1.5 0c0-.6 0-1.1-.1-1.6-.1-.4-.2-.7-.4-1-.2-.2-.3-.4-.5-.5-.2-.1-.4-.1-.6-.1-.2 0-.4 0-.6.1-.2.1-.4.3-.5.5-.2.2-.3.6-.4 1-.1.4-.1.9-.1 1.6s0 1.1.1 1.6c.1.4.2.7.4 1 .2.2.3.4.5.5.2.1.4.1.6.1.2 0 .4 0 .6-.1.2-.1.4-.3.5-.5.2-.2.3-.6.4-1 0-.5.1-1 .1-1.6zM224.2 73.7c0 .8-.1 1.4-.2 2-.2.6-.4 1-.7 1.4-.3.4-.6.6-1 .8-.4.2-.8.3-1.3.3s-.9-.1-1.3-.3c-.4-.2-.7-.4-1-.8-.3-.4-.5-.8-.7-1.4-.2-.6-.2-1.2-.2-2s.1-1.4.2-2c.2-.6.4-1 .7-1.4.3-.4.6-.6 1-.8.4-.2.8-.3 1.3-.3s.9.1 1.3.3c.4.2.7.4 1 .8.3.4.5.8.7 1.4.2.5.2 1.2.2 2zm-1.5 0c0-.6 0-1.1-.1-1.6-.1-.4-.2-.7-.4-1s-.3-.4-.5-.5c-.2-.1-.4-.1-.6-.1-.2 0-.4 0-.6.1-.2.1-.4.3-.5.5s-.3.6-.4 1c-.1.4-.1.9-.1 1.6s0 1.1.1 1.6c.1.4.2.7.4 1s.3.4.5.5c.2.1.4.1.6.1.2 0 .4 0 .6-.1.2-.1.4-.3.5-.5s.3-.6.4-1c.1-.5.1-1 .1-1.6z"></path></g></svg><svg width="172" height="172" viewBox="-5 -5 172 172" id="badge_slogan" y="288"><title>badge_slogan</title><g fill="none" fill-rule="evenodd"><circle fill="#F5FAFC" fill-rule="nonzero" cx="81" cy="81" r="81"></circle><path fill="#1ED1A5" fill-rule="nonzero" d="M114.6 83.4v-2h12.8v2zM36.9 83.4v-2h12.8v2z"></path><circle stroke="#00CB99" stroke-width="2" cx="81" cy="81" r="65"></circle><g transform="translate(53 55)" fill="#00CB99" fill-rule="nonzero"><path d="M.9.4h1.7c.2 0 .3 0 .5.1s.2.2.3.4L6 8c.1.2.2.5.3.8.1.3.2.6.2.9.1-.6.3-1.2.5-1.6L9.7 1c0-.1.1-.2.3-.3.1-.1.3-.2.5-.2h1.7L7.5 12H5.6L.9.4zM16.8 12h-2.2V.4h2.2zM30.6 6.2c0 .8-.1 1.6-.4 2.3-.3.7-.7 1.3-1.2 1.8s-1.1.9-1.8 1.2c-.7.3-1.5.4-2.4.4h-4.4V.4h4.4c.9 0 1.7.1 2.4.4.7.3 1.3.7 1.8 1.2s.9 1.1 1.2 1.8c.3.8.4 1.6.4 2.4zm-2.2 0c0-.6-.1-1.2-.3-1.7-.2-.5-.4-.9-.7-1.3-.3-.3-.7-.6-1.1-.8-.5-.2-1-.3-1.5-.3h-2.2v8.1h2.2c.6 0 1.1-.1 1.5-.3.5-.2.8-.5 1.1-.8.3-.3.6-.8.7-1.3.1-.5.3-.9.3-1.6zM40.6.4v1.7h-5.1v3.2h4V7h-4v3.3h5.1V12h-7.3V.4zM54.6 6.2c0 .8-.1 1.6-.4 2.4-.3.7-.7 1.3-1.2 1.9-.5.5-1.1.9-1.8 1.2-.7.3-1.5.4-2.4.4-.9 0-1.7-.1-2.4-.4-.7-.3-1.3-.7-1.9-1.2-.5-.5-.9-1.2-1.2-1.9-.3-.7-.4-1.5-.4-2.4 0-.8.1-1.6.4-2.4.3-.7.7-1.3 1.2-1.9.5-.5 1.1-.9 1.9-1.2.8-.3 1.5-.4 2.4-.4.9 0 1.7.1 2.4.4.7.3 1.3.7 1.8 1.2s.9 1.1 1.2 1.9c.2.8.4 1.6.4 2.4zm-2.2 0c0-.6-.1-1.2-.3-1.7-.2-.5-.4-.9-.7-1.3-.3-.4-.7-.6-1.1-.8-.5-.2-1-.3-1.5-.3-.6 0-1.1.1-1.5.3-.4.2-.8.5-1.2.8-.3.4-.6.8-.7 1.3-.3.5-.4 1.1-.4 1.7 0 .6.1 1.2.3 1.7.2.5.4.9.7 1.3.3.4.7.6 1.2.8.5.2 1 .3 1.5.3.6 0 1.1-.1 1.5-.3.5-.2.8-.5 1.1-.8.3-.3.6-.8.7-1.3.1-.5.4-1 .4-1.7z"></path></g><g transform="translate(61 75)" fill="#00CB99" fill-rule="nonzero"><path d="M.2 3.8h1.5c.1 0 .3 0 .3.1.1.1.1.2.2.3l.5 4.4V10c.1-.2.2-.4.3-.7.1-.2.2-.5.3-.7l1.8-4.4c0-.1.1-.2.2-.3.1-.1.2-.1.3-.1h.8c.1 0 .2 0 .3.1.1.1.1.2.1.3l.7 4.4c0 .2.1.5.1.7 0 .2.1.4.1.7.1-.2.1-.4.2-.7.1-.2.1-.5.2-.7l1.6-4.4c0-.1.1-.2.2-.3.1-.1.2-.1.3-.1h1.4L8.4 12H6.9c-.2 0-.3-.1-.3-.4l-.8-4.7c0-.2-.1-.4-.1-.6 0 .1-.1.2-.1.3 0 .1-.1.2-.1.3l-2 4.7c-.1.2-.2.4-.4.4H1.6L.2 3.8zM14.7 3.8l-1 8.2h-2l1-8.2h2zm.5-2.4c0 .2 0 .3-.1.5s-.2.3-.3.4c-.1.1-.2.2-.4.3-.1.1-.3.1-.5.1s-.3 0-.5-.1c-.1-.1-.3-.2-.4-.3-.1-.1-.2-.2-.3-.4-.1-.2-.1-.3-.1-.5s0-.3.1-.5.2-.3.3-.4c.1-.1.2-.2.4-.3.1-.1.3-.1.5-.1s.3 0 .5.1c.1.1.3.2.4.3.1.1.2.2.3.4.1.2.1.3.1.5zM16.3 10.3v-.1-.2-.4c0-.2 0-.4.1-.6l.5-3.7h-.8c-.1 0-.2 0-.2-.1-.1-.1-.1-.1-.1-.3v-.1-.3c0-.1 0-.3.1-.5l1.2-.2.7-2.2c0-.1.1-.2.2-.2.1-.1.2-.1.3-.1h1.1L19 3.9h2l-.2 1.4h-2l-.4 3.6c0 .2 0 .4-.1.5-.1.1 0 .2 0 .3V10c0 .2 0 .4.1.5.1.1.2.2.4.2h.3c.1 0 .1-.1.2-.1s.1-.1.2-.1h.2l.1.1.4 1c-.3.2-.6.4-1 .5-.4.1-.7.2-1.1.2-.6 0-1-.2-1.4-.5-.2-.5-.4-.9-.4-1.5zM21.1 12L22.5.1h2l-.6 5.1c.4-.5.8-.9 1.3-1.2.5-.3.9-.4 1.4-.4.3 0 .6.1.8.2.2.1.5.3.6.5.2.2.3.5.4.8.1.3.1.7.1 1.1v.6L28 12h-2l.6-5.2v-.3-.2c0-.4-.1-.6-.2-.8-.1-.2-.3-.2-.6-.2-.2 0-.4.1-.6.2-.2.1-.4.3-.6.5-.2.2-.4.5-.6.8-.2.3-.3.6-.4 1L23 12h-1.9z"></path></g><path d="M101.1 87h-1c-.2 0-.4-.1-.5-.2-.1-.1-.1-.3-.1-.4l.1-1.1c-.4.6-.8 1-1.2 1.3-.5.3-1 .5-1.5.5-.3 0-.6-.1-.9-.2-.3-.1-.5-.3-.7-.5-.2-.2-.4-.5-.5-.9-.1-.4-.2-.8-.2-1.3s.1-1 .2-1.4c.1-.4.3-.9.5-1.3s.5-.8.8-1.1c.3-.3.7-.6 1.1-.9.4-.2.8-.4 1.3-.6.5-.1.9-.2 1.5-.2.4 0 .7 0 1.1.1.4.1.7.1 1.1.3l-1.1 7.9zm-3.6-1.5c.2 0 .4-.1.6-.2.2-.1.4-.4.6-.6.2-.3.4-.6.5-.9.2-.4.3-.7.4-1.2l.3-2.5h-.4c-.4 0-.9.1-1.2.3-.4.2-.7.5-1 .8-.3.3-.5.7-.7 1.2-.2.5-.2.9-.2 1.4 0 .6.1 1 .3 1.3.3.3.5.4.8.4z" fill="#00CB99" fill-rule="nonzero"></path><g transform="translate(45 95)" fill="#00CB99" fill-rule="nonzero"><path d="M6.7 7.7c.1.2.2.4.2.6.1-.2.2-.4.2-.6.1-.2.2-.4.3-.5L10.8.8c0-.1.1-.1.1-.2s.1-.1.2-.1h2V12h-1.9V4.5 4v-.5l-3.5 6.6c-.1.1-.2.3-.3.3-.1.1-.3.1-.4.1h-.3c-.2 0-.3 0-.4-.1l-.3-.3-3.5-6.6V12H.6V.4h2c.1 0 .1.1.2.1 0 0 .1.1.1.2l3.5 6.4c.1.3.2.4.3.6zM18.9 12h-2.2V.4h2.2zM28.7 2.5c-.1.1-.1.2-.2.2s-.2.1-.3.1c-.1 0-.2 0-.4-.1-.1-.1-.3-.2-.5-.3l-.6-.3c-.2-.1-.5-.1-.9-.1-.3 0-.6 0-.8.1l-.6.3c-.2.1-.3.3-.3.5s-.1.4-.1.6c0 .3.1.5.2.7.2.2.4.3.6.5.3.1.5.2.9.3.4.1.6.2 1 .3.3.1.7.2 1 .4.3.2.6.3.9.6.3.2.5.5.6.9.1.4.2.7.2 1.2s-.1 1-.3 1.5c-.2.5-.4.9-.8 1.2-.3.3-.8.6-1.3.8-.5.2-1.1.3-1.7.3-.4 0-.7 0-1.1-.1-.4-.1-.7-.2-1-.3-.3-.1-.6-.3-.9-.5-.3-.2-.5-.4-.8-.6l.6-1 .2-.2c.1-.1.2-.1.3-.1.1 0 .3.1.4.2.2.1.3.2.5.4.2.1.5.3.7.4.2.1.6.2 1 .2.6 0 1.1-.1 1.4-.4.3-.3.5-.7.5-1.3 0-.3-.1-.6-.2-.7-.2-.2-.4-.4-.6-.5-.3-.1-.5-.2-.9-.3-.3-.1-.6-.2-1-.3-.4-.1-.7-.2-1-.4-.3-.2-.6-.3-.9-.6-.3-.2-.5-.5-.6-.9-.1-.4-.2-.8-.2-1.3 0-.4.1-.8.3-1.2.2-.4.4-.8.7-1.1.3-.3.7-.6 1.2-.7.5-.2 1-.3 1.6-.3.7 0 1.3.1 1.9.3.6.2 1.1.5 1.5.9l-.2.7zM38.3 2.5c-.1.1-.1.2-.2.2s-.2.1-.3.1c-.1 0-.2 0-.4-.1-.1-.1-.3-.2-.5-.3l-.6-.3c-.2-.1-.5-.1-.9-.1-.3 0-.6 0-.8.1l-.6.3c-.2.1-.3.3-.3.5s-.1.4-.1.6c0 .3.1.5.2.7.2.2.4.3.6.5.3.1.5.2.9.3.4.1.6.2 1 .3.3.1.7.2 1 .4.3.2.6.3.9.6.2.2.5.5.6.9.2.3.2.7.2 1.2s-.1 1-.3 1.5c-.2.5-.4.9-.8 1.2-.3.3-.8.6-1.3.8-.5.2-1.1.3-1.7.3-.4 0-.7 0-1.1-.1-.4-.1-.7-.2-1-.3-.3-.1-.6-.3-.9-.5-.3-.2-.5-.4-.8-.6l.6-1 .2-.2c.1-.1.2-.1.3-.1.1 0 .3.1.4.2.2.1.3.2.5.4.2.1.5.3.7.4.2.1.6.2 1 .2.6 0 1.1-.1 1.4-.4.3-.3.5-.7.5-1.3 0-.3-.1-.6-.2-.7-.2-.2-.4-.4-.6-.5-.3-.1-.5-.2-.9-.3-.3-.1-.6-.2-1-.3-.4-.1-.7-.2-1-.4-.3-.2-.6-.3-.9-.6-.3-.2-.5-.5-.6-.9-.1-.4-.2-.8-.2-1.3 0-.4.1-.8.3-1.2.2-.4.4-.8.7-1.1.3-.3.7-.6 1.2-.7.5-.2 1-.3 1.6-.3.7 0 1.3.1 1.9.3.6.2 1.1.5 1.5.9l-.2.7zM44.1 12H42V.4h2.2V12zM58.8 6.2c0 .8-.1 1.6-.4 2.4-.3.7-.7 1.3-1.2 1.9-.5.5-1.1.9-1.8 1.2-.7.3-1.5.4-2.4.4-.9 0-1.7-.1-2.4-.4-.7-.3-1.3-.7-1.9-1.2-.5-.5-.9-1.2-1.2-1.9-.3-.7-.4-1.5-.4-2.4 0-.8.1-1.6.4-2.4.3-.7.7-1.3 1.2-1.9.5-.5 1.1-.9 1.9-1.2.8-.3 1.5-.4 2.4-.4.9 0 1.7.1 2.4.4.7.3 1.3.7 1.8 1.2s.9 1.1 1.2 1.9c.3.8.4 1.6.4 2.4zm-2.2 0c0-.6-.1-1.2-.3-1.7-.2-.5-.4-.9-.7-1.3-.3-.4-.7-.6-1.1-.8-.4-.2-1-.3-1.5-.3-.6 0-1.1.1-1.5.3-.4.2-.8.5-1.2.8-.3.4-.6.8-.7 1.3-.2.5-.3 1.1-.3 1.7 0 .6.1 1.2.3 1.7.2.5.4.9.7 1.3.3.4.7.6 1.2.8.5.2 1 .3 1.5.3.6 0 1.1-.1 1.5-.3.4-.2.8-.5 1.1-.8.3-.3.6-.8.7-1.3.1-.5.3-1 .3-1.7zM62.9.4h.2c.1 0 .1.1.1.1l.2.2 6.1 7.7v-.5V.4h1.9V12h-1.1c-.2 0-.3 0-.4-.1-.1-.1-.2-.1-.3-.3l-6-7.7V12h-1.9V.4h1.1.1z"></path></g></g></svg><svg width="142" height="65" viewBox="-5 -5 142 65" id="logo" y="460"><title>Logo</title><defs><path id="a" d="M.133.238H19.37v28.37H.133z"></path></defs><g transform="translate(1 1)" fill="none" fill-rule="evenodd"><path fill="#FFF" d="M59.444 45h-.91L56 38h1.213l1.776 5.093L60.765 38H62zM73 45h1v-7h-1z"></path><g transform="translate(56 8)"><path d="M36.045 31.965c-.31-.342-.722-.498-1.249-.498h-1.352v5.373h1.352c.527 0 .94-.156 1.25-.498.381-.426.392-1.224.392-2.24 0-1.017-.01-1.712-.393-2.137m.764 5.186c-.464.467-1.135.695-1.9.695h-2.58V30.46h2.58c.765 0 1.436.228 1.9.695.795.799.743 1.877.743 2.945 0 1.069.052 2.251-.743 3.05M50.449 37.846V30.46h4.697v1.006h-3.582v2.157h3.056v.996h-3.056v2.22h3.582v1.006zM71.387 31.861a1.496 1.496 0 0 0-1.094-.456c-.433 0-.836.176-1.094.456-.362.394-.434.81-.434 2.292 0 1.484.072 1.899.434 2.292.258.28.66.456 1.094.456.434 0 .837-.176 1.094-.456.362-.393.434-.808.434-2.292 0-1.483-.072-1.898-.434-2.292m.847 5.259c-.506.508-1.156.788-1.94.788-.785 0-1.425-.28-1.931-.788-.723-.726-.712-1.546-.712-2.967 0-1.42-.01-2.24.712-2.966.506-.508 1.146-.788 1.93-.788.785 0 1.435.28 1.941.788.723.726.702 1.545.702 2.966 0 1.421.02 2.24-.702 2.967M10.238 2.947H3.02v11.277h7.22c3.53 0 5.989-1.913 5.989-5.658 0-3.746-2.46-5.619-5.99-5.619m.278 13.986H3.02v11.675H.005V.238h10.511c5.157 0 8.726 3.227 8.726 8.328 0 5.1-3.57 8.367-8.726 8.367M44.945 28.608H42.13L35.862 5.896l-6.267 22.712h-2.816L19.559.238h3.214l5.513 22.871L34.513.238h2.697l6.228 22.871L48.95.238h3.213z" fill="#FFF"></path><g transform="translate(54.768)"><mask id="b" fill="#fff"><use xlink:href="#a"></use></mask><path d="M10.366 2.947H3.147v11.277h7.22c3.53 0 5.989-1.913 5.989-5.658 0-3.746-2.46-5.619-5.99-5.619m.278 13.986H3.147v11.675H.133V.238h10.511c5.157 0 8.727 3.227 8.727 8.328 0 5.1-3.57 8.367-8.727 8.367" fill="#FFF" mask="url(#b)"></path></g></g><path fill="#B6E1E2" d="M30 23.557L52 44l-.097-23.873L33.797 0z"></path><path stroke="#000" stroke-linejoin="bevel" d="M33.797 0L30 23.557 52 44l-.097-23.873z"></path><path fill="#B6E1E2" d="M7.89 13.013L0 36l29.248-12.333L33 0z"></path><path stroke="#000" stroke-linejoin="bevel" d="M7.89 13.013L0 36l29.248-12.332L33 0z"></path><path fill="#B6E1E2" d="M0 36.351L23.32 53 52 44.379 29.786 24z"></path><g transform="translate(0 7)"><path stroke="#000" stroke-linejoin="bevel" d="M.09 29.084l29.705-12.44L51.948 37.17l-28.602 8.683z"></path><path d="M32.083 3.293l.915-.481s.127.166.13.389c.01.53.463.146.89-.458 0 0-.459-3.54.343-2.46 0 0 2.036 2.485 2.687 2.505.65.02.22 1.89.147 2.324-.073.434.749 1.17 1.367 1.777.618.608.588.317.88.137.292-.18.615 1.498.44 1.868-.176.37 2.259 2.495 2.284 2.822.022.282.46.446.82.629 1.192.604 2.772 2.03 2.971 2.578.158.434 1.785 4.288 1.92 4.7.09.28-.121.962-.428.48-.551-.87-.847-2.153-1.156-2.094-.308.058-.415.645-.241 1.447.41 1.466.65 1.205.793 1.522.144.317.253 1.619.222 1.81-.032.19.086.586.494.96 0 0 .164.487.434 1.228 0 0 .402.82.394 1.263 0 0-.201.245-.487-.219 0 0-.287-.634-.53-.744-.244-.109-.564-.155-.493.596.072.75 1.01 3.31.77 3.572-.24.261-.827 2.227-1.27 2.688l-16.513-15.4 2.217-13.44z" fill="#678E3D"></path><path d="M32.083 3.293l.915-.481s.127.166.13.389c.01.53.463.146.89-.458 0 0-.459-3.54.343-2.46 0 0 2.036 2.485 2.687 2.505.65.02.22 1.89.147 2.324-.073.434.749 1.17 1.367 1.777.618.608.588.317.88.137.292-.18.615 1.498.44 1.868-.176.37 2.259 2.495 2.284 2.822.022.282.46.446.82.629 1.192.604 2.772 2.03 2.971 2.578.158.434 1.785 4.288 1.92 4.7.09.28-.121.962-.428.48-.551-.87-.847-2.153-1.156-2.094-.308.058-.415.645-.241 1.447.41 1.466.65 1.205.793 1.522.144.317.253 1.619.222 1.81-.032.19.086.586.494.96 0 0 .164.487.434 1.228 0 0 .402.82.394 1.263 0 0-.201.245-.487-.219 0 0-.287-.634-.53-.744-.244-.109-.564-.155-.493.596.072.75 1.01 3.31.77 3.572-.24.261-.827 2.227-1.27 2.688l-16.513-15.4 2.217-13.44z" stroke="#000" stroke-linejoin="bevel"></path><path d="M6.226 11.541L1.78 24.391s1.357-.712 2.003-.365c.43.157-.945 2.317-.928 2.597.018.294-.116.383 1.152.723l12.04-4.87s-.43-1.033-.147-1.32c.24-.242 2.701-.831 3.273-1.14.947-.512 2.81-1.73 3.03-1.868.679-.426.753.188.928 1.322l6.742-2.78 2.15-13.305s-.8-.812-1.075-1.002c-.277-.19-1.268.322-1.766.337-.498.015.9-.478.69-.793-.21-.315-.757-.83-1.465-.273-.558.25-.737.202-1.075.09-.338-.11-.462-.556-1.172.137-.711.693-3.258 1.262-3.54 1.484-.282.223-1.248.733-.139 1.629.475.383-.279.806-.279.806s-.104-.003-.635.319c-.532.322-.635.729-.635.729s-.064 1.003-.674.918l-.915-.126s-.305-.042-.335.64c-.031.681-1.398 1.393-1.398 1.393s-.521 1.186-1.466.547c-1.142-.774 2.345-4.42 2.345-4.42s1.372-.857 1.417-1.14c.045-.281.816-2.238-.049-2.186-.865.052.068-.795.05-.994-.018-.199.69-.774.292-.829-.399-.055-1.058.649-1.466.592-.408-.056.136-.754.136-.754L12.713 3.67s3.213-.016-.184 2.174c0 0-1.647 1.473-2.297 1.64-.65.168-1.66 2.735-1.66 2.735s-1.337.86-2.346 1.321" fill="#678E3D"></path><path d="M6.226 11.541L1.78 24.391s1.357-.712 2.003-.365c.43.157-.945 2.317-.928 2.597.018.294-.116.383 1.152.723l12.04-4.87s-.43-1.033-.147-1.32c.24-.242 2.701-.831 3.273-1.14.947-.512 2.81-1.73 3.03-1.868.679-.426.753.188.928 1.322l6.742-2.78 2.15-13.305s-.8-.812-1.075-1.002c-.277-.19-1.268.322-1.766.337-.498.015.9-.478.69-.793-.21-.315-.757-.83-1.465-.273-.558.25-.737.202-1.075.09-.338-.11-.462-.556-1.172.137-.711.693-3.258 1.262-3.54 1.484-.282.223-1.248.733-.139 1.629.475.383-.279.806-.279.806s-.104-.003-.635.319c-.532.322-.635.729-.635.729s-.064 1.003-.674.918l-.915-.126s-.305-.042-.335.64c-.031.681-1.398 1.393-1.398 1.393s-.521 1.186-1.466.547c-1.142-.774 2.345-4.42 2.345-4.42s1.372-.857 1.417-1.14c.045-.281.816-2.238-.049-2.186-.865.052.068-.795.05-.994-.018-.199.69-.774.292-.829-.399-.055-1.058.649-1.466.592-.408-.056.136-.754.136-.754L12.713 3.67s3.213-.016-.184 2.174c0 0-1.647 1.473-2.297 1.64-.65.168-1.66 2.735-1.66 2.735s-1.337.86-2.346 1.321z" stroke="#000" stroke-linejoin="bevel"></path><path d="M3.926 27.379s3.048.992 3.776.858c.728-.134 1.092-.725 2.459-.2 1.365.527 1.626-.354 2.238-.229.51.104 3.316 1.092 4.727 2.034 1.412.942 6.528 1.171 6.528 1.171s3.785.369 4.423.394c.637.026 1.104.224.986-.742-.05-.307.803-.606 1 .047l.314.89s.538 1.146 1.278-.178c0 0 .613-.925 1.263-1.124 0 0 .792-.286.82-.016.027.27-.799.69-.74.88.057.19 1.45.699 2.261.373 0 0 1.2.147 1.61-.11.546-.343 1.661 1.457 1.661 1.457s1.357-.004 2.345-.227c.989-.224 2.297-.365 2.297-.365s2.712.365 3.175-.228l-16.513-15.31-6.704 2.715s-.336 1.412 1.77 1.34c1.063-.035-.022.779.255 1.12.488.6 1.29-.25 2.539-.545 1.248-.294.928.12.877.325-.05.205-1.376.352-.442.796.346.146 2.417-.118 2.338.2-.135.552-2.479.782-2.734 1.067-.255.284-2.204.703-2.279.792-.074.09-1.007 1.086.553 1.013 0 0 2.617-.417 3.486-.439.87-.022 2.385.03 2.588-.045.204-.076 2.21-.232 2.492-.228.746.01 1.259.718 1.124.957-.135.239-1.157.638-2.368.55-1.213-.088-1.094-.069-2.332-.052-1.237.016-2.634.93-3.498.68-.864-.248-1.419 1.388-1.47 1.597-.052.208-.789.198-.799.739-.01.541-1.06.349-1.302.278-1.647-.489-1.712-1.694-2.009-1.742l-2.003-.319s-.11-.624-1.199-.964c-1.087-.339-1.282-.805-1.282-.805s-.291-.318-.838-.352c-.547-.035-.444-.452-.367-.765.077-.314 1.047-1.18.378-1.312-.16-.026-.562-.878-.562-.878l-12.12 4.902z" fill="#678E3D"></path><path d="M3.926 27.379s3.048.992 3.776.858c.728-.134 1.092-.725 2.459-.2 1.365.527 1.626-.354 2.238-.229.51.104 3.316 1.092 4.727 2.034 1.412.942 6.528 1.171 6.528 1.171s3.785.369 4.423.394c.637.026 1.104.224.986-.742-.05-.307.803-.606 1 .047l.314.89s.538 1.146 1.278-.178c0 0 .613-.925 1.263-1.124 0 0 .792-.286.82-.016.027.27-.799.69-.74.88.057.19 1.45.699 2.261.373 0 0 1.2.147 1.61-.11.546-.343 1.661 1.457 1.661 1.457s1.357-.004 2.345-.227c.989-.224 2.297-.365 2.297-.365s2.712.365 3.175-.228l-16.513-15.31-6.704 2.715s-.336 1.412 1.77 1.34c1.063-.035-.022.779.255 1.12.488.6 1.29-.25 2.539-.545 1.248-.294.928.12.877.325-.05.205-1.376.352-.442.796.346.146 2.417-.118 2.338.2-.135.552-2.479.782-2.734 1.067-.255.284-2.204.703-2.279.792-.074.09-1.007 1.086.553 1.013 0 0 2.617-.417 3.486-.439.87-.022 2.385.03 2.588-.045.204-.076 2.21-.232 2.492-.228.746.01 1.259.718 1.124.957-.135.239-1.157.638-2.368.55-1.213-.088-1.094-.069-2.332-.052-1.237.016-2.634.93-3.498.68-.864-.248-1.419 1.388-1.47 1.597-.052.208-.789.198-.799.739-.01.541-1.06.349-1.302.278-1.647-.489-1.712-1.694-2.009-1.742l-2.003-.319s-.11-.624-1.199-.964c-1.087-.339-1.282-.805-1.282-.805s-.291-.318-.838-.352c-.547-.035-.444-.452-.367-.765.077-.314 1.047-1.18.378-1.312-.16-.026-.562-.878-.562-.878l-12.12 4.902z" stroke="#000" stroke-linejoin="bevel"></path><path d="M46.546 38.81s-1.498-.07-1.7-.285c-.202-.215-.132-.409-.874-.56-.741-.15-1.104.088-1.53.028-.428-.06-.966-.32-1.154-.627-.187-.306-1.819-.115-1.819-.115s-.958-.274-.98-.51c-.022-.236-1.45-.236-1.623-.26-.172-.025-1.444-.448-1.473-.64-.029-.19-1.368-.284-1.886-.356-.518-.073-2.878-.864-3.237-.785-.486.106-.555.512.247.77s1.873.556 2.298.464c.182-.04 1.362.384 1.862.551.5.168 1.155.492 1.11.785-.047.294-1.382-.233-2.285-.357-.518-.072-2.49-.246-2.681-.37-.191-.125-.913-.225-1.119-.253-.206-.028-1.121.091-.084.529 0 0 1.904.95 2.605.85.702-.1.664-.007.986.095.322.103.66.23 1.138.541.477.311 1.198.018 1.33.184.131.165.846.313 1.228.562 0 0 1.022.533.027.494 0 0-.904.054-1.235-.188-.33-.242-.454-.108-.384.094s-.485.611-1.146.253c-.662-.358-.417.068-.753.093-.336.024-1.326-.308-1.664-.475-.337-.168-1.603-.025-.305.596 1.298.62 1.009.286 1.51.453.5.167 1.862.551 2.201.402.34-.15 2.056.573 2.283.8l9.107-2.764z" fill="#678E3D"></path><path d="M46.546 38.81s-1.498-.07-1.7-.285c-.202-.215-.132-.409-.874-.56-.741-.15-1.104.088-1.53.028-.428-.06-.966-.32-1.154-.627-.187-.306-1.819-.115-1.819-.115s-.958-.274-.98-.51c-.022-.236-1.45-.236-1.623-.26-.172-.025-1.444-.448-1.473-.64-.029-.19-1.368-.284-1.886-.356-.518-.073-2.878-.864-3.237-.785-.486.106-.555.512.247.77s1.873.556 2.298.464c.182-.04 1.362.384 1.862.551.5.168 1.155.492 1.11.785-.047.294-1.382-.233-2.285-.357-.518-.072-2.49-.246-2.681-.37-.191-.125-.913-.225-1.119-.253-.206-.028-1.121.091-.084.529 0 0 1.904.95 2.605.85.702-.1.664-.007.986.095.322.103.66.23 1.138.541.477.311 1.198.018 1.33.184.131.165.846.313 1.228.562 0 0 1.022.533.027.494 0 0-.904.054-1.235-.188-.33-.242-.454-.108-.384.094s-.485.611-1.146.253c-.662-.358-.417.068-.753.093-.336.024-1.326-.308-1.664-.475-.337-.168-1.603-.025-.305.596 1.298.62 1.009.286 1.51.453.5.167 1.862.551 2.201.402.34-.15 2.056.573 2.283.8l9.107-2.764z" stroke="#000"></path></g></g></svg><svg width="49" height="49" viewBox="-5 -5 49 49" id="mobile_close" y="525"><title>Artboard</title><g fill="#00CB99" fill-rule="nonzero"><path d="M19.5 38C9.283 38 1 29.717 1 19.5S9.283 1 19.5 1 38 9.283 38 19.5 29.717 38 19.5 38zm0-2.921c8.604 0 15.579-6.975 15.579-15.579 0-8.604-6.975-15.579-15.579-15.579-8.604 0-15.579 6.975-15.579 15.579 0 8.604 6.975 15.579 15.579 15.579z"></path><path d="M14.196 13l12.021 12.021-1.414 1.414-12.02-12.02z"></path><path d="M12.783 25.021l12.02-12.02 1.415 1.414-12.021 12.02z"></path></g></svg><svg width="49" height="49" viewBox="-5 -5 49 49" id="mobile_handle" y="574"><title>Artboard</title><g fill="#00CB99" fill-rule="nonzero"><path d="M19.5 38C9.283 38 1 29.717 1 19.5S9.283 1 19.5 1 38 9.283 38 19.5 29.717 38 19.5 38zm0-2.921c8.604 0 15.579-6.975 15.579-15.579 0-8.604-6.975-15.579-15.579-15.579-8.604 0-15.579 6.975-15.579 15.579 0 8.604 6.975 15.579 15.579 15.579z"></path><path d="M11 25h17v2H11zM11 19h17v2H11zM11 13h17v2H11z"></path></g></svg><svg width="111" height="111" viewBox="-5 -5 111 111" id="play_mint" y="623"><title>Play</title><g transform="translate(2 2)" stroke="#04FCBF" stroke-width="3" fill="none" fill-rule="evenodd"><circle cx="48.5" cy="48.5" r="48.5"></circle><path d="M61 49L41 59V39z"></path></g></svg><svg width="102" height="102" viewBox="-5 -5 102 102" id="quote_mint" y="734"><title>quote_mint</title><g fill="#04FCBF" fill-rule="nonzero"><path d="M46 91.5C20.871 91.5.5 71.129.5 46S20.871.5 46 .5 91.5 20.871 91.5 46 71.129 91.5 46 91.5zm0-3c23.472 0 42.5-19.028 42.5-42.5S69.472 3.5 46 3.5 3.5 22.528 3.5 46 22.528 88.5 46 88.5z"></path><path d="M38.6 45.4v11.7h-9.3v-9.7c0-8.7 3.1-13 9.7-15.8l2.1 3.7c-4.3 2.1-6.2 5.3-6.2 10.1h3.7zm20 0v11.7h-9.3v-9.7c0-8.7 3.1-13 9.7-15.8l2.1 3.7c-4.3 2.1-6.2 5.3-6.2 10.1h3.7z"></path></g></svg></svg>