<?xml version="1.0" encoding="UTF-8"?>
<svg width="76px" height="76px" viewBox="0 0 76 76" version="1.1" xmlns="http://www.w3.org/2000/svg" xmlns:xlink="http://www.w3.org/1999/xlink">
    <!-- Generator: Sketch 49.3 (51167) - http://www.bohemiancoding.com/sketch -->
    <title>Group 2</title>
    <desc>Created with Sketch.</desc>
    <defs></defs>
    <g id="Page-1" stroke="none" stroke-width="1" fill="none" fill-rule="evenodd">
        <g id="Group-2" fill="#04FCBF">
            <path d="M38,76 C17.0131795,76 0,58.9868205 0,38 C0,17.0131795 17.0131795,0 38,0 C58.9868205,0 76,17.0131795 76,38 C76,58.9868205 58.9868205,76 38,76 Z M38,73 C57.3299662,73 73,57.3299662 73,38 C73,18.6700338 57.3299662,3 38,3 C18.6700338,3 3,18.6700338 3,38 C3,57.3299662 18.6700338,73 38,73 Z" id="Oval-3" fill-rule="nonzero"></path>
            <g id="Group" transform="translate(21.000000, 30.000000)">
                <polygon id="Triangle" points="33 8 17 16 17 0"></polygon>
                <rect id="Rectangle-11" x="0" y="6" width="17" height="3"></rect>
            </g>
        </g>
    </g>
</svg>