<?xml version="1.0" encoding="UTF-8"?>
<svg width="132px" height="55px" viewBox="0 0 132 55" version="1.1" xmlns="http://www.w3.org/2000/svg" xmlns:xlink="http://www.w3.org/1999/xlink">
    <!-- Generator: Sketch 49.3 (51167) - http://www.bohemiancoding.com/sketch -->
    <title>Logo</title>
    <desc>Created with Sketch.</desc>
    <defs>
        <polygon id="path-1" points="0.133016688 0.2377888 19.3703283 0.2377888 19.3703283 28.6079808 0.133016688 28.6079808"></polygon>
    </defs>
    <g id="Page-1" stroke="none" stroke-width="1" fill="none" fill-rule="evenodd">
        <g id="Projects" transform="translate(-30.000000, -22.000000)">
            <g id="Top" transform="translate(0.000000, -1.000000)">
                <g id="Logo" transform="translate(31.000000, 24.000000)">
                    <polygon id="Fill-1" fill="#FFFFFF" points="59.4439448 45 58.5341516 45 56 38 57.2129517 38 58.9890482 43.0925857 60.7651447 38 62 38"></polygon>
                    <polygon id="Fill-2" fill="#FFFFFF" points="73 45 74 45 74 38 73 38"></polygon>
                    <g id="Group-16" transform="translate(56.000000, 8.000000)">
                        <path d="M36.0451018,31.9649616 C35.7355566,31.6226576 35.322527,31.4670096 34.7960279,31.4670096 L33.4437722,31.4670096 L33.4437722,36.8396016 L34.7960279,36.8396016 C35.322527,36.8396016 35.7355566,36.6839536 36.0451018,36.3416496 C36.4272676,35.9163536 36.4375555,35.1177456 36.4375555,34.1014736 C36.4375555,33.0852016 36.4272676,32.3902576 36.0451018,31.9649616 M36.8091308,37.1505936 C36.3446617,37.6175376 35.6735265,37.8455376 34.9094975,37.8455376 L32.3287438,37.8455376 L32.3287438,30.4610736 L34.9094975,30.4610736 C35.6735265,30.4610736 36.3446617,30.6890736 36.8091308,31.1560176 C37.6037209,31.9546256 37.5522813,33.0332176 37.5522813,34.1014736 C37.5522813,35.1697296 37.6037209,36.3519856 36.8091308,37.1505936" id="Fill-3" fill="#FFFFFF"></path>
                        <polygon id="Fill-5" fill="#FFFFFF" points="50.4487576 37.8455376 50.4487576 30.4610736 55.1457959 30.4610736 55.1457959 31.4670096 51.563786 31.4670096 51.563786 33.6244976 54.6195993 33.6244976 54.6195993 34.6200976 51.563786 34.6200976 51.563786 36.8396016 55.1457959 36.8396016 55.1457959 37.8455376"></polygon>
                        <path d="M71.3873272,31.861176 C71.1295241,31.581192 70.7267825,31.404872 70.2931772,31.404872 C69.8595718,31.404872 69.4571328,31.581192 69.1990271,31.861176 C68.8374372,32.255464 68.7654218,32.67012 68.7654218,34.153336 C68.7654218,35.636552 68.8374372,36.051512 69.1990271,36.445496 C69.4571328,36.72548 69.8595718,36.901496 70.2931772,36.901496 C70.7267825,36.901496 71.1295241,36.72548 71.3873272,36.445496 C71.7486145,36.051512 71.8209325,35.636552 71.8209325,34.153336 C71.8209325,32.67012 71.7486145,32.255464 71.3873272,31.861176 M72.233962,37.119768 C71.7280387,37.627752 71.077782,37.907736 70.2931772,37.907736 C69.5085723,37.907736 68.8686035,37.627752 68.3626802,37.119768 C67.6401054,36.393816 67.6506959,35.574232 67.6506959,34.153336 C67.6506959,32.73244 67.6401054,31.91316 68.3626802,31.186904 C68.8686035,30.67892 69.5085723,30.398936 70.2931772,30.398936 C71.077782,30.398936 71.7280387,30.67892 72.233962,31.186904 C72.9565368,31.91316 72.9359609,32.73244 72.9359609,34.153336 C72.9359609,35.574232 72.9565368,36.393816 72.233962,37.119768" id="Fill-7" fill="#FFFFFF"></path>
                        <path d="M10.2384119,2.9473408 L3.01932147,2.9473408 L3.01932147,14.2236128 L10.2384119,14.2236128 C13.7686796,14.2236128 16.2277939,12.3111488 16.2277939,8.5655648 C16.2277939,4.8202848 13.7686796,2.9473408 10.2384119,2.9473408 M10.5161856,16.9331648 L3.01932147,16.9331648 L3.01932147,28.6079808 L0.00496240602,28.6079808 L0.00496240602,0.2377888 L10.5161856,0.2377888 C15.6725491,0.2377888 19.2424555,3.4653568 19.2424555,8.5655648 C19.2424555,13.6657728 15.6725491,16.9331648 10.5161856,16.9331648" id="Fill-9" fill="#FFFFFF"></path>
                        <polygon id="Fill-11" fill="#FFFFFF" points="44.9451164 28.6078896 42.128951 28.6078896 35.8617953 5.8960496 29.5949422 28.6078896 26.7787768 28.6078896 19.5596864 0.2376976 22.7725417 0.2376976 28.2859564 23.1091376 34.5131707 0.2376976 37.21042 0.2376976 43.4379369 23.1091376 48.9513515 0.2376976 52.1642069 0.2376976"></polygon>
                        <g id="Group-15" transform="translate(54.768018, 0.000000)">
                            <mask id="mask-2" fill="white">
                                <use xlink:href="#path-1"></use>
                            </mask>
                            <g id="Clip-14"></g>
                            <path d="M10.3664662,2.9473408 L3.14737576,2.9473408 L3.14737576,14.2236128 L10.3664662,14.2236128 C13.8967339,14.2236128 16.3558482,12.3111488 16.3558482,8.5655648 C16.3558482,4.8202848 13.8967339,2.9473408 10.3664662,2.9473408 M10.6442399,16.9331648 L3.14737576,16.9331648 L3.14737576,28.6079808 L0.133016688,28.6079808 L0.133016688,0.2377888 L10.6442399,0.2377888 C15.8006033,0.2377888 19.3705098,3.4653568 19.3705098,8.5655648 C19.3705098,13.6657728 15.8006033,16.9331648 10.6442399,16.9331648" id="Fill-13" fill="#FFFFFF" mask="url(#mask-2)"></path>
                        </g>
                    </g>
                    <polygon id="Fill-17" fill="#B6E1E2" points="30 23.5569485 52 44 51.9028664 20.1271977 33.7965379 0"></polygon>
                    <polygon id="Stroke-18" stroke="#000000" stroke-linejoin="bevel" points="33.7965379 0 30 23.5569485 52 44 51.9028664 20.1271977"></polygon>
                    <polygon id="Fill-20" fill="#B6E1E2" points="7.88938964 13.0126293 0 36 29.2477628 23.6672014 33 0"></polygon>
                    <polygon id="Stroke-21" stroke="#000000" stroke-linejoin="bevel" points="7.88915774 13.0126293 0 36 29.2477281 23.6675086 33 0"></polygon>
                    <polygon id="Fill-23" fill="#B6E1E2" points="0 36.3510628 23.3197524 53 52 44.3785026 29.7864258 24"></polygon>
                    <g id="Group-42" transform="translate(0.000000, 7.000000)">
                        <polygon id="Stroke-24" stroke="#000000" stroke-linejoin="bevel" points="0.0906595238 29.0843181 29.7950405 16.6448685 51.9476595 37.169204 23.3461119 45.8523987"></polygon>
                        <path d="M32.0828548,3.29292081 L32.9978071,2.81161879 C32.9978071,2.81161879 33.1247119,2.9783302 33.1287357,3.20061208 C33.138331,3.73007517 33.5905452,3.34725638 34.0189262,2.74277315 C34.0189262,2.74277315 33.5592833,-0.797065772 34.36095,0.282236242 C34.36095,0.282236242 36.3973071,2.76777987 37.0479262,2.7881557 C37.6988548,2.80791409 37.267069,4.6778604 37.1946405,5.11223624 C37.1222119,5.54568591 37.9439976,6.28106846 38.5624262,6.88925638 C39.1802357,7.49682685 39.1502119,7.20600805 39.4417833,7.02571275 C39.7339738,6.84572617 40.0568071,8.52395436 39.8816167,8.89411544 C39.7064262,9.26396779 42.140831,11.3892295 42.1659024,11.7161691 C42.187569,11.9983436 42.6252357,12.1622765 42.9852119,12.3447329 C44.1781167,12.9492161 45.7579262,14.3755248 45.9572595,14.9232027 C46.1148071,15.3566523 47.7422833,19.2113906 47.8763071,19.6229208 C47.9676167,19.9035517 47.7555929,20.5845987 47.4491643,20.1020617 C46.8975929,19.2339275 46.6016881,17.9499409 46.2934024,18.0085987 C45.9851167,18.0672564 45.8777119,18.6535248 46.0519738,19.4555919 C46.4617833,20.9223436 46.7016643,20.6608537 46.8449738,20.9776054 C46.9889024,21.2946658 47.0984738,22.5968671 47.0665929,22.7873503 C47.0347119,22.9781423 47.15295,23.3736188 47.5605929,23.748102 C47.5605929,23.748102 47.7252595,24.2352698 47.9951643,24.9759007 C47.9951643,24.9759007 48.3969262,25.7955651 48.3888786,26.2385852 C48.3888786,26.2385852 48.1879976,26.4837128 47.9016881,26.0200081 C47.9016881,26.0200081 47.6147595,25.386196 47.3714738,25.2762899 C47.1278786,25.1670013 46.80845,25.1206926 46.879331,25.8718201 C46.9505214,26.6229477 47.8896167,29.1819678 47.6497357,29.4440752 C47.4098548,29.7052564 46.8223786,31.6709074 46.37945,32.1321423 L29.8660452,16.7310953 L32.0828548,3.29292081 Z" id="Fill-26" fill="#678E3D"></path>
                        <path d="M32.0828548,3.29292081 L32.9978071,2.81161879 C32.9978071,2.81161879 33.1247119,2.9783302 33.1287357,3.20061208 C33.138331,3.73007517 33.5905452,3.34725638 34.0189262,2.74277315 C34.0189262,2.74277315 33.5592833,-0.797065772 34.36095,0.282236242 C34.36095,0.282236242 36.3973071,2.76777987 37.0479262,2.7881557 C37.6988548,2.80791409 37.267069,4.6778604 37.1946405,5.11223624 C37.1222119,5.54568591 37.9439976,6.28106846 38.5624262,6.88925638 C39.1802357,7.49682685 39.1502119,7.20600805 39.4417833,7.02571275 C39.7339738,6.84572617 40.0568071,8.52395436 39.8816167,8.89411544 C39.7064262,9.26396779 42.140831,11.3892295 42.1659024,11.7161691 C42.187569,11.9983436 42.6252357,12.1622765 42.9852119,12.3447329 C44.1781167,12.9492161 45.7579262,14.3755248 45.9572595,14.9232027 C46.1148071,15.3566523 47.7422833,19.2113906 47.8763071,19.6229208 C47.9676167,19.9035517 47.7555929,20.5845987 47.4491643,20.1020617 C46.8975929,19.2339275 46.6016881,17.9499409 46.2934024,18.0085987 C45.9851167,18.0672564 45.8777119,18.6535248 46.0519738,19.4555919 C46.4617833,20.9223436 46.7016643,20.6608537 46.8449738,20.9776054 C46.9889024,21.2946658 47.0984738,22.5968671 47.0665929,22.7873503 C47.0347119,22.9781423 47.15295,23.3736188 47.5605929,23.748102 C47.5605929,23.748102 47.7252595,24.2352698 47.9951643,24.9759007 C47.9951643,24.9759007 48.3969262,25.7955651 48.3888786,26.2385852 C48.3888786,26.2385852 48.1879976,26.4837128 47.9016881,26.0200081 C47.9016881,26.0200081 47.6147595,25.386196 47.3714738,25.2762899 C47.1278786,25.1670013 46.80845,25.1206926 46.879331,25.8718201 C46.9505214,26.6229477 47.8896167,29.1819678 47.6497357,29.4440752 C47.4098548,29.7052564 46.8223786,31.6709074 46.37945,32.1321423 L29.8660452,16.7310953 L32.0828548,3.29292081 Z" id="Stroke-28" stroke="#000000" stroke-linejoin="bevel"></path>
                        <path d="M6.22619524,11.541153 L1.78019524,24.3905893 C1.78019524,24.3905893 3.13745714,23.6792872 3.78343333,24.0259852 C4.21243333,24.1828174 2.8378381,26.3426564 2.85517143,26.6232872 C2.87312381,26.9171933 2.73940952,27.0057973 4.00721905,27.3460121 L16.0461476,22.476804 C16.0461476,22.476804 15.6168381,21.4428846 15.8997429,21.1554617 C16.1393143,20.9137302 18.6012667,20.3249919 19.1729571,20.0162671 C20.1201,19.5040926 21.9834333,18.285247 22.2022667,18.1481732 C22.8816714,17.7218242 22.9562667,18.3355691 23.1305286,19.4695154 L29.8725762,16.6900658 L32.022219,3.38495168 C32.022219,3.38495168 31.2236476,2.57269664 30.9475524,2.38252215 C30.6711476,2.19265638 29.6800524,2.70452215 29.1820286,2.71964966 C28.6843143,2.73477718 30.0827429,2.24174362 29.8725762,1.9268443 C29.6624095,1.61194497 29.115481,1.09730067 28.406981,1.65362282 C27.8486,1.90430738 27.6703143,1.85583758 27.3320048,1.74469664 C26.9936952,1.6335557 26.8701952,1.1883745 26.1595286,1.88146174 C25.4485524,2.57424027 22.9021,3.14260268 22.6204333,3.36519329 C22.3384571,3.58778389 21.3715048,4.09810604 22.4811476,4.99371678 C22.9556476,5.3768443 22.2022667,5.79979732 22.2022667,5.79979732 C22.2022667,5.79979732 22.0982667,5.79701879 21.5671238,6.11901879 C21.0350524,6.44132752 20.931981,6.84791812 20.931981,6.84791812 C20.931981,6.84791812 20.8679095,7.85065638 20.2578381,7.7663745 C19.6474571,7.68209262 19.3428857,7.64010604 19.3428857,7.64010604 C19.3428857,7.64010604 19.0383143,7.59750201 19.0076714,8.27947517 C18.9770286,8.9611396 17.6095524,9.67305906 17.6095524,9.67305906 C17.6095524,9.67305906 17.0886238,10.8594886 16.1439571,10.2198107 C15.0021238,9.44645503 18.489219,5.79979732 18.489219,5.79979732 C18.489219,5.79979732 19.8610286,4.94277718 19.9059095,4.66091141 C19.9507905,4.37904564 20.7224333,2.42203893 19.8570048,2.47359597 C18.9921952,2.52607919 19.9251,1.67924698 19.9068381,1.48011946 C19.8885762,1.28099195 20.5976952,0.706146309 20.1990286,0.651193289 C19.8003619,0.595931544 19.1413857,1.29982416 18.7334333,1.24332752 C18.325481,1.1871396 18.8690048,0.488804027 18.8690048,0.488804027 L12.7131952,3.67052215 C12.7131952,3.67052215 15.9260524,3.65508591 12.528719,5.84548859 C12.528719,5.84548859 10.8823619,7.31841477 10.2323619,7.48574362 C9.58267143,7.65338121 8.57114762,10.2198107 8.57114762,10.2198107 C8.57114762,10.2198107 7.23462381,11.0808443 6.22619524,11.541153" id="Fill-30" fill="#678E3D"></path>
                        <path d="M6.22619524,11.541153 L1.78019524,24.3905893 C1.78019524,24.3905893 3.13745714,23.6792872 3.78343333,24.0259852 C4.21243333,24.1828174 2.8378381,26.3426564 2.85517143,26.6232872 C2.87312381,26.9171933 2.73940952,27.0057973 4.00721905,27.3460121 L16.0461476,22.476804 C16.0461476,22.476804 15.6168381,21.4428846 15.8997429,21.1554617 C16.1393143,20.9137302 18.6012667,20.3249919 19.1729571,20.0162671 C20.1201,19.5040926 21.9834333,18.285247 22.2022667,18.1481732 C22.8816714,17.7218242 22.9562667,18.3355691 23.1305286,19.4695154 L29.8725762,16.6900658 L32.022219,3.38495168 C32.022219,3.38495168 31.2236476,2.57269664 30.9475524,2.38252215 C30.6711476,2.19265638 29.6800524,2.70452215 29.1820286,2.71964966 C28.6843143,2.73477718 30.0827429,2.24174362 29.8725762,1.9268443 C29.6624095,1.61194497 29.115481,1.09730067 28.406981,1.65362282 C27.8486,1.90430738 27.6703143,1.85583758 27.3320048,1.74469664 C26.9936952,1.6335557 26.8701952,1.1883745 26.1595286,1.88146174 C25.4485524,2.57424027 22.9021,3.14260268 22.6204333,3.36519329 C22.3384571,3.58778389 21.3715048,4.09810604 22.4811476,4.99371678 C22.9556476,5.3768443 22.2022667,5.79979732 22.2022667,5.79979732 C22.2022667,5.79979732 22.0982667,5.79701879 21.5671238,6.11901879 C21.0350524,6.44132752 20.931981,6.84791812 20.931981,6.84791812 C20.931981,6.84791812 20.8679095,7.85065638 20.2578381,7.7663745 C19.6474571,7.68209262 19.3428857,7.64010604 19.3428857,7.64010604 C19.3428857,7.64010604 19.0383143,7.59750201 19.0076714,8.27947517 C18.9770286,8.9611396 17.6095524,9.67305906 17.6095524,9.67305906 C17.6095524,9.67305906 17.0886238,10.8594886 16.1439571,10.2198107 C15.0021238,9.44645503 18.489219,5.79979732 18.489219,5.79979732 C18.489219,5.79979732 19.8610286,4.94277718 19.9059095,4.66091141 C19.9507905,4.37904564 20.7224333,2.42203893 19.8570048,2.47359597 C18.9921952,2.52607919 19.9251,1.67924698 19.9068381,1.48011946 C19.8885762,1.28099195 20.5976952,0.706146309 20.1990286,0.651193289 C19.8003619,0.595931544 19.1413857,1.29982416 18.7334333,1.24332752 C18.325481,1.1871396 18.8690048,0.488804027 18.8690048,0.488804027 L12.7131952,3.67052215 C12.7131952,3.67052215 15.9260524,3.65508591 12.528719,5.84548859 C12.528719,5.84548859 10.8823619,7.31841477 10.2323619,7.48574362 C9.58267143,7.65338121 8.57114762,10.2198107 8.57114762,10.2198107 C8.57114762,10.2198107 7.23462381,11.0808443 6.22619524,11.541153 Z" id="Stroke-32" stroke="#000000" stroke-linejoin="bevel"></path>
                        <path d="M3.92596905,27.3789839 C3.92596905,27.3789839 6.97446905,28.3706081 7.70215952,28.2369302 C8.42954048,28.1029436 8.79415952,27.5117356 10.1607071,28.0378027 C11.5260167,28.5638698 11.7866357,27.6830779 12.3991833,27.8084201 C12.9086595,27.9124604 15.7151119,28.9000711 17.126231,29.8422993 C18.5376595,30.7839101 23.6540881,31.0129839 23.6540881,31.0129839 C23.6540881,31.0129839 27.4386357,31.3816013 28.0765643,31.4069168 C28.7138738,31.4328497 29.1809452,31.631051 29.0627071,30.6653597 C29.0128738,30.3578698 29.8659214,30.0590242 30.062469,30.7119772 L30.3769452,31.6026483 C30.3769452,31.6026483 30.9148976,32.7477087 31.6552786,31.4235879 C31.6552786,31.4235879 32.2678262,30.498957 32.9181357,30.2995208 C32.9181357,30.2995208 33.7095881,30.0142591 33.7374452,30.2840846 C33.7653024,30.5539101 32.9394929,30.9743933 32.9970643,31.1636416 C33.0546357,31.3531987 34.448731,31.8629034 35.2590643,31.5368899 C35.2590643,31.5368899 36.4587786,31.6835342 36.8692071,31.4263664 C37.4145881,31.0842993 38.5304214,32.8844738 38.5304214,32.8844738 C38.5304214,32.8844738 39.8867548,32.8801517 40.8753738,32.6566349 C41.8639929,32.4331181 43.171731,32.2920309 43.171731,32.2920309 C43.171731,32.2920309 45.8840881,32.6572523 46.3471357,32.0641919 L29.8340405,16.7542188 L23.1303738,19.4694537 C23.1303738,19.4694537 22.7939214,20.8809436 24.8993024,20.8096282 C25.9631357,20.7735074 24.8776357,21.5876148 25.154969,21.9287557 C25.6433976,22.5295342 26.4441357,21.6786886 27.6939929,21.3841651 C28.9416833,21.0902591 28.6216357,21.5033329 28.5711833,21.7086349 C28.520731,21.9136282 27.1950405,22.0605812 28.1285643,22.5054537 C28.4746119,22.6514805 30.5459452,22.3865946 30.4673262,22.7055074 C30.3317548,23.2571987 27.9880405,23.4871987 27.7329929,23.7715342 C27.4779452,24.0558698 25.5285643,24.4751181 25.4542786,24.5643396 C25.3796833,24.6532523 24.4467786,25.6495074 26.0070881,25.576957 C26.0070881,25.576957 28.6241119,25.1601785 29.4929452,25.1379503 C30.3620881,25.1160309 31.8778262,25.1678966 32.0811833,25.0928765 C32.28485,25.0169302 34.2902548,24.8613329 34.57285,24.8650376 C35.3194214,24.8742993 35.8316833,25.5828228 35.696731,25.8217758 C35.5617786,26.0610376 34.54035,26.4599101 33.3285643,26.3716148 C32.116469,26.2836282 32.2353262,26.3030779 30.997231,26.319749 C29.7597548,26.3358027 28.3634929,27.2493195 27.4989929,27.0004872 C26.6354214,26.7519638 26.0801357,28.3882054 26.0287548,28.5969034 C25.9773738,28.8052926 25.2400881,28.794796 25.2301833,29.3359906 C25.2202786,29.8771852 24.1697548,29.6845409 23.9280167,29.6135342 C22.28135,29.1254403 22.215731,27.9204872 21.9192071,27.8723262 C21.6226833,27.8241651 19.915969,27.5534134 19.915969,27.5534134 C19.915969,27.5534134 19.8060881,26.9285544 18.7171833,26.5892658 C17.6295167,26.2499772 17.4351357,25.7844201 17.4351357,25.7844201 C17.4351357,25.7844201 17.1435643,25.4655074 16.5969452,25.4315477 C16.0503262,25.3969705 16.1530881,24.9795745 16.22985,24.6665275 C16.3069214,24.3531718 17.276969,23.4871987 16.6083976,23.3547557 C16.4474452,23.3285141 16.0463024,22.4767423 16.0463024,22.4767423 L3.92596905,27.3789839 Z" id="Fill-34" fill="#678E3D"></path>
                        <path d="M3.92596905,27.3789839 C3.92596905,27.3789839 6.97446905,28.3706081 7.70215952,28.2369302 C8.42954048,28.1029436 8.79415952,27.5117356 10.1607071,28.0378027 C11.5260167,28.5638698 11.7866357,27.6830779 12.3991833,27.8084201 C12.9086595,27.9124604 15.7151119,28.9000711 17.126231,29.8422993 C18.5376595,30.7839101 23.6540881,31.0129839 23.6540881,31.0129839 C23.6540881,31.0129839 27.4386357,31.3816013 28.0765643,31.4069168 C28.7138738,31.4328497 29.1809452,31.631051 29.0627071,30.6653597 C29.0128738,30.3578698 29.8659214,30.0590242 30.062469,30.7119772 L30.3769452,31.6026483 C30.3769452,31.6026483 30.9148976,32.7477087 31.6552786,31.4235879 C31.6552786,31.4235879 32.2678262,30.498957 32.9181357,30.2995208 C32.9181357,30.2995208 33.7095881,30.0142591 33.7374452,30.2840846 C33.7653024,30.5539101 32.9394929,30.9743933 32.9970643,31.1636416 C33.0546357,31.3531987 34.448731,31.8629034 35.2590643,31.5368899 C35.2590643,31.5368899 36.4587786,31.6835342 36.8692071,31.4263664 C37.4145881,31.0842993 38.5304214,32.8844738 38.5304214,32.8844738 C38.5304214,32.8844738 39.8867548,32.8801517 40.8753738,32.6566349 C41.8639929,32.4331181 43.171731,32.2920309 43.171731,32.2920309 C43.171731,32.2920309 45.8840881,32.6572523 46.3471357,32.0641919 L29.8340405,16.7542188 L23.1303738,19.4694537 C23.1303738,19.4694537 22.7939214,20.8809436 24.8993024,20.8096282 C25.9631357,20.7735074 24.8776357,21.5876148 25.154969,21.9287557 C25.6433976,22.5295342 26.4441357,21.6786886 27.6939929,21.3841651 C28.9416833,21.0902591 28.6216357,21.5033329 28.5711833,21.7086349 C28.520731,21.9136282 27.1950405,22.0605812 28.1285643,22.5054537 C28.4746119,22.6514805 30.5459452,22.3865946 30.4673262,22.7055074 C30.3317548,23.2571987 27.9880405,23.4871987 27.7329929,23.7715342 C27.4779452,24.0558698 25.5285643,24.4751181 25.4542786,24.5643396 C25.3796833,24.6532523 24.4467786,25.6495074 26.0070881,25.576957 C26.0070881,25.576957 28.6241119,25.1601785 29.4929452,25.1379503 C30.3620881,25.1160309 31.8778262,25.1678966 32.0811833,25.0928765 C32.28485,25.0169302 34.2902548,24.8613329 34.57285,24.8650376 C35.3194214,24.8742993 35.8316833,25.5828228 35.696731,25.8217758 C35.5617786,26.0610376 34.54035,26.4599101 33.3285643,26.3716148 C32.116469,26.2836282 32.2353262,26.3030779 30.997231,26.319749 C29.7597548,26.3358027 28.3634929,27.2493195 27.4989929,27.0004872 C26.6354214,26.7519638 26.0801357,28.3882054 26.0287548,28.5969034 C25.9773738,28.8052926 25.2400881,28.794796 25.2301833,29.3359906 C25.2202786,29.8771852 24.1697548,29.6845409 23.9280167,29.6135342 C22.28135,29.1254403 22.215731,27.9204872 21.9192071,27.8723262 C21.6226833,27.8241651 19.915969,27.5534134 19.915969,27.5534134 C19.915969,27.5534134 19.8060881,26.9285544 18.7171833,26.5892658 C17.6295167,26.2499772 17.4351357,25.7844201 17.4351357,25.7844201 C17.4351357,25.7844201 17.1435643,25.4655074 16.5969452,25.4315477 C16.0503262,25.3969705 16.1530881,24.9795745 16.22985,24.6665275 C16.3069214,24.3531718 17.276969,23.4871987 16.6083976,23.3547557 C16.4474452,23.3285141 16.0463024,22.4767423 16.0463024,22.4767423 L3.92596905,27.3789839 Z" id="Stroke-36" stroke="#000000" stroke-linejoin="bevel"></path>
                        <path d="M46.5460357,38.8092121 C46.5460357,38.8092121 45.04825,38.739749 44.846131,38.5245678 C44.6437024,38.3096953 44.7136548,38.1161248 43.9720357,37.9654671 C43.2307262,37.8151181 42.8679643,38.053145 42.441131,37.9932523 C42.0142976,37.9336685 41.4763452,37.6721785 41.2884643,37.3656148 C41.1008929,37.0596685 39.4690833,37.2513866 39.4690833,37.2513866 C39.4690833,37.2513866 38.5114167,36.9772389 38.4894405,36.7413732 C38.4674643,36.5051987 37.0393214,36.5045812 36.8659881,36.4801919 C36.6935833,36.4561114 35.422369,36.0325409 35.3929643,35.841749 C35.3641786,35.650957 34.0251786,35.5574134 33.5067262,35.4848631 C32.9885833,35.4123128 30.6290833,34.621051 30.2700357,34.6997758 C29.7843929,34.8059772 29.71475,35.2119503 30.5167262,35.4697356 C31.3190119,35.7275208 32.3902738,36.0263664 32.814631,35.933749 C32.99725,35.8939235 34.1765357,36.3181114 34.6770357,36.4851315 C35.1772262,36.6527691 35.8324881,36.9766215 35.7860595,37.2699101 C35.739631,37.5635074 34.4046548,37.0371315 33.5023929,36.9127154 C32.98425,36.8410913 31.0119643,36.6672792 30.8206786,36.5428631 C30.6297024,36.4181383 29.9082024,36.3184201 29.7020595,36.2900174 C29.4959167,36.2616148 28.5806548,36.3814 29.6181786,36.8185544 C29.6181786,36.8185544 31.522369,37.7681919 32.2234405,37.6687826 C32.9245119,37.5687557 32.887369,37.6622993 33.2092738,37.7644872 C33.530869,37.8669839 33.8694881,37.9938698 34.3467738,38.3053732 C34.8240595,38.6162591 35.5449405,38.3229705 35.6767976,38.4887557 C35.8083452,38.6539235 36.5227262,38.8018027 36.9049881,39.0506349 C36.9049881,39.0506349 37.9273452,39.5841114 36.9319167,39.5452121 C36.9319167,39.5452121 36.0277976,39.5989302 35.6969167,39.3568899 C35.3663452,39.1151584 35.2431548,39.2494537 35.3131071,39.4513597 C35.383369,39.6532658 34.8283929,40.0620174 34.166631,39.7038966 C33.504869,39.3457758 33.7503214,39.7721248 33.4141786,39.7965141 C33.0780357,39.8205946 32.087869,39.4887154 31.7504881,39.3216953 C31.4127976,39.1543664 30.1474643,39.2969973 31.4452976,39.9175342 C32.7428214,40.5383799 32.4537262,40.2040309 32.9542262,40.371051 C33.4547262,40.5380711 34.8169405,40.9221248 35.1564881,40.772702 C35.4960357,40.6235879 37.2120357,41.346004 37.4392262,41.573843 L46.5460357,38.8092121 Z" id="Fill-38" fill="#678E3D"></path>
                        <path d="M46.5460357,38.8092121 C46.5460357,38.8092121 45.04825,38.739749 44.846131,38.5245678 C44.6437024,38.3096953 44.7136548,38.1161248 43.9720357,37.9654671 C43.2307262,37.8151181 42.8679643,38.053145 42.441131,37.9932523 C42.0142976,37.9336685 41.4763452,37.6721785 41.2884643,37.3656148 C41.1008929,37.0596685 39.4690833,37.2513866 39.4690833,37.2513866 C39.4690833,37.2513866 38.5114167,36.9772389 38.4894405,36.7413732 C38.4674643,36.5051987 37.0393214,36.5045812 36.8659881,36.4801919 C36.6935833,36.4561114 35.422369,36.0325409 35.3929643,35.841749 C35.3641786,35.650957 34.0251786,35.5574134 33.5067262,35.4848631 C32.9885833,35.4123128 30.6290833,34.621051 30.2700357,34.6997758 C29.7843929,34.8059772 29.71475,35.2119503 30.5167262,35.4697356 C31.3190119,35.7275208 32.3902738,36.0263664 32.814631,35.933749 C32.99725,35.8939235 34.1765357,36.3181114 34.6770357,36.4851315 C35.1772262,36.6527691 35.8324881,36.9766215 35.7860595,37.2699101 C35.739631,37.5635074 34.4046548,37.0371315 33.5023929,36.9127154 C32.98425,36.8410913 31.0119643,36.6672792 30.8206786,36.5428631 C30.6297024,36.4181383 29.9082024,36.3184201 29.7020595,36.2900174 C29.4959167,36.2616148 28.5806548,36.3814 29.6181786,36.8185544 C29.6181786,36.8185544 31.522369,37.7681919 32.2234405,37.6687826 C32.9245119,37.5687557 32.887369,37.6622993 33.2092738,37.7644872 C33.530869,37.8669839 33.8694881,37.9938698 34.3467738,38.3053732 C34.8240595,38.6162591 35.5449405,38.3229705 35.6767976,38.4887557 C35.8083452,38.6539235 36.5227262,38.8018027 36.9049881,39.0506349 C36.9049881,39.0506349 37.9273452,39.5841114 36.9319167,39.5452121 C36.9319167,39.5452121 36.0277976,39.5989302 35.6969167,39.3568899 C35.3663452,39.1151584 35.2431548,39.2494537 35.3131071,39.4513597 C35.383369,39.6532658 34.8283929,40.0620174 34.166631,39.7038966 C33.504869,39.3457758 33.7503214,39.7721248 33.4141786,39.7965141 C33.0780357,39.8205946 32.087869,39.4887154 31.7504881,39.3216953 C31.4127976,39.1543664 30.1474643,39.2969973 31.4452976,39.9175342 C32.7428214,40.5383799 32.4537262,40.2040309 32.9542262,40.371051 C33.4547262,40.5380711 34.8169405,40.9221248 35.1564881,40.772702 C35.4960357,40.6235879 37.2120357,41.346004 37.4392262,41.573843 L46.5460357,38.8092121 Z" id="Stroke-40" stroke="#000000"></path>
                    </g>
                </g>
            </g>
        </g>
    </g>
</svg>