<?xml version="1.0" encoding="UTF-8"?>
<svg width="39px" height="39px" viewBox="0 0 39 39" version="1.1" xmlns="http://www.w3.org/2000/svg" xmlns:xlink="http://www.w3.org/1999/xlink">
    <!-- Generator: Sketch 49.3 (51167) - http://www.bohemiancoding.com/sketch -->
    <title>Artboard</title>
    <desc>Created with Sketch.</desc>
    <defs></defs>
    <g id="Artboard" stroke="none" stroke-width="1" fill="none" fill-rule="evenodd">
        <path d="M19.5,38 C9.28273213,38 1,29.7172679 1,19.5 C1,9.28273213 9.28273213,1 19.5,1 C29.7172679,1 38,9.28273213 38,19.5 C38,29.7172679 29.7172679,38 19.5,38 Z M19.5,35.0789474 C28.104015,35.0789474 35.0789474,28.104015 35.0789474,19.5 C35.0789474,10.8959849 28.104015,3.92105263 19.5,3.92105263 C10.8959849,3.92105263 3.92105263,10.8959849 3.92105263,19.5 C3.92105263,28.104015 10.8959849,35.0789474 19.5,35.0789474 Z" id="Oval" fill="#00CB99" fill-rule="nonzero"></path>
        <rect id="Rectangle-2" fill="#00CB99" fill-rule="nonzero" transform="translate(19.500000, 19.717514) rotate(45.000000) translate(-19.500000, -19.717514) " x="10.9999997" y="18.7175143" width="17" height="2"></rect>
        <rect id="Rectangle-2-Copy-2" fill="#00CB99" fill-rule="nonzero" transform="translate(19.500000, 19.717514) rotate(-45.000000) translate(-19.500000, -19.717514) " x="11.0000003" y="18.7175143" width="17" height="2"></rect>
    </g>
</svg>