<?xml version="1.0" encoding="UTF-8"?>
<svg width="92px" height="92px" viewBox="0 0 92 92" version="1.1" xmlns="http://www.w3.org/2000/svg" xmlns:xlink="http://www.w3.org/1999/xlink">
    <!-- Generator: Sketch 49.3 (51167) - http://www.bohemiancoding.com/sketch -->
    <title>quote_mint</title>
    <desc>Created with Sketch.</desc>
    <defs></defs>
    <g id="Page-1" stroke="none" stroke-width="1" fill="none" fill-rule="evenodd">
        <g id="quote_mint" fill="#04FCBF" fill-rule="nonzero">
            <path d="M46,91.5 C20.8710439,91.5 0.5,71.1289561 0.5,46 C0.5,20.8710439 20.8710439,0.5 46,0.5 C71.1289561,0.5 91.5,20.8710439 91.5,46 C91.5,71.1289561 71.1289561,91.5 46,91.5 Z M46,88.5 C69.4721019,88.5 88.5,69.4721019 88.5,46 C88.5,22.5278981 69.4721019,3.5 46,3.5 C22.5278981,3.5 3.5,22.5278981 3.5,46 C3.5,69.4721019 22.5278981,88.5 46,88.5 Z" id="Oval-3"></path>
            <path d="M38.6,45.4 L38.6,57.1 L29.3,57.1 L29.3,47.4 C29.3,38.7 32.4,34.4 39,31.6 L41.1,35.3 C36.8,37.4 34.9,40.6 34.9,45.4 L38.6,45.4 Z M58.6,45.4 L58.6,57.1 L49.3,57.1 L49.3,47.4 C49.3,38.7 52.4,34.4 59,31.6 L61.1,35.3 C56.8,37.4 54.9,40.6 54.9,45.4 L58.6,45.4 Z" id="“"></path>
        </g>
    </g>
</svg>