<?xml version="1.0" standalone="no"?>
<!DOCTYPE svg PUBLIC "-//W3C//DTD SVG 20010904//EN"
 "http://www.w3.org/TR/2001/REC-SVG-20010904/DTD/svg10.dtd">
<svg version="1.0" xmlns="http://www.w3.org/2000/svg"
 width="300.000000pt" height="300.000000pt" viewBox="0 0 300.000000 300.000000"
 preserveAspectRatio="xMidYMid meet">
<metadata>
Created by potrace 1.11, written by Peter Selinger 2001-2013
</metadata>
<g transform="translate(0.000000,300.000000) scale(0.100000,-0.100000)"
fill="#000000" stroke="none">
<path d="M0 1500 l0 -1500 1500 0 1500 0 0 1500 0 1500 -1500 0 -1500 0 0
-1500z m1800 1162 c0 -10 -11 -86 -25 -170 -14 -84 -25 -154 -25 -157 0 -8
-34 8 -59 27 -26 20 -66 24 -77 7 -4 -7 -20 -8 -42 -4 -27 5 -48 0 -96 -23
-34 -16 -83 -38 -109 -47 -57 -20 -77 -51 -60 -94 9 -26 8 -30 -18 -45 -16 -9
-32 -28 -35 -42 -5 -19 -13 -24 -38 -24 -35 0 -56 -15 -56 -41 0 -19 -86 -94
-94 -81 -13 22 80 149 139 189 47 32 74 130 44 160 -8 8 -7 19 4 39 8 16 12
34 10 40 -3 9 504 281 530 283 4 1 7 -7 7 -17z m494 -442 l385 -425 1 -518 0
-519 -32 27 c-18 15 -63 56 -99 90 l-66 62 23 58 c23 56 23 60 9 115 -8 32
-15 60 -15 62 0 2 12 4 28 3 24 0 27 4 26 30 -1 17 -13 56 -27 85 -33 71 -46
160 -23 160 8 0 20 9 26 20 9 16 2 43 -36 138 -58 143 -67 157 -139 207 -31
22 -86 69 -120 105 -55 56 -65 72 -70 113 -7 50 -29 82 -50 73 -7 -2 -27 10
-44 28 -30 31 -32 36 -25 83 5 45 4 53 -16 69 -12 11 -51 48 -87 84 -79 79
-95 76 -103 -18 -3 -40 -9 -59 -16 -54 -7 5 -1 67 20 195 29 180 30 187 48
170 9 -10 191 -209 402 -443z m-1123 120 c5 0 9 -10 9 -21 0 -12 7 -27 16 -34
25 -18 9 -70 -27 -93 -70 -44 -166 -191 -155 -236 5 -20 42 -46 65 -46 16 0
120 92 126 110 4 12 17 20 38 22 25 2 36 11 49 37 9 18 31 42 48 52 39 24 46
43 26 74 -9 13 -16 26 -16 29 0 2 24 12 53 22 28 9 70 26 92 37 44 23 138 30
131 10 -10 -24 23 -37 65 -26 32 8 41 7 53 -6 13 -14 10 -49 -30 -291 -24
-151 -46 -284 -49 -295 -3 -16 -36 -34 -135 -74 -72 -30 -132 -52 -133 -50 -1
2 -7 13 -13 24 -18 33 -47 28 -133 -24 -46 -28 -108 -57 -139 -66 -79 -23
-102 -40 -102 -74 0 -28 -5 -31 -265 -135 -146 -59 -270 -104 -275 -101 -5 3
3 31 17 62 l26 56 -23 19 c-12 10 -31 18 -41 18 -10 0 -19 2 -19 4 0 20 183
522 192 528 7 4 31 18 53 30 29 17 47 39 66 79 19 39 39 63 70 84 50 32 137
102 157 125 7 8 10 29 8 46 -4 29 -1 32 77 72 45 22 88 39 95 36 8 -2 18 -4
23 -4z m819 -80 c6 0 8 -20 4 -56 l-7 -55 49 -50 c26 -27 54 -49 61 -49 13 0
17 -17 14 -52 -1 -10 25 -47 58 -82 34 -36 61 -69 61 -74 0 -5 12 -14 28 -21
15 -7 50 -30 78 -52 40 -30 58 -54 78 -101 27 -61 27 -61 6 -75 -28 -20 -26
-85 5 -148 13 -27 25 -66 25 -86 0 -19 7 -44 15 -55 19 -25 19 -44 0 -44 -25
0 -28 -47 -8 -127 20 -77 20 -78 0 -125 l-20 -48 -116 109 c-64 59 -226 211
-361 336 -213 198 -245 231 -242 254 4 35 81 520 87 548 3 13 11 20 18 17 7
-2 25 5 40 16 21 17 27 30 27 62 l0 41 45 -42 c24 -22 49 -41 55 -41z m-1071
-54 c-13 -10 -142 -104 -163 -119 -15 -10 -40 -44 -56 -76 -25 -50 -54 -80
-66 -68 -2 2 9 41 24 87 l28 83 115 57 c62 32 116 54 118 48 1 -5 1 -11 0 -12z
m1104 -932 c188 -174 349 -323 357 -331 13 -13 10 -14 -30 -10 -25 3 -91 -2
-146 -11 l-101 -15 -36 35 -36 36 -79 -5 -79 -6 4 30 c3 19 0 32 -9 35 -24 9
-76 -12 -105 -42 -34 -37 -39 -37 -47 -5 -8 33 -46 51 -75 36 -11 -7 -21 -18
-21 -26 0 -18 -25 -19 -175 -5 -257 24 -272 27 -400 88 l-120 56 -130 -1 c-71
-1 -148 -2 -169 -3 -21 0 -43 3 -47 7 -5 5 93 50 218 101 227 92 266 100 235
52 -23 -37 -15 -68 22 -87 88 -47 123 -67 141 -83 11 -9 37 -20 58 -23 25 -4
48 -17 70 -40 51 -55 148 -71 162 -27 3 10 12 21 20 23 7 3 21 22 30 41 14 30
23 36 49 36 17 0 53 7 80 15 29 9 89 15 148 15 132 0 179 23 155 76 -20 47
-39 48 -337 29 -68 -5 -73 -4 -50 9 14 7 41 17 60 21 59 12 90 33 90 59 0 25
-17 36 -56 36 -17 0 -24 6 -24 20 0 39 -51 44 -132 12 -22 -9 -26 -8 -22 2 8
22 -25 46 -62 46 -19 0 -34 4 -34 9 0 10 236 109 263 110 11 1 161 -131 360
-315z m-676 269 c-9 -8 -87 -43 -87 -38 0 7 66 45 79 45 8 0 11 -3 8 -7z m8
-81 c5 -19 44 -42 70 -42 7 0 15 -12 17 -27 3 -26 7 -28 43 -27 22 0 47 3 55
7 10 4 21 -2 32 -17 l18 -24 -48 -17 c-85 -30 -97 -38 -100 -72 -3 -28 1 -33
23 -39 14 -3 69 -1 123 5 162 17 322 23 322 12 0 -7 -38 -11 -104 -11 -66 0
-119 -5 -146 -15 -23 -8 -59 -15 -80 -15 -27 0 -45 -7 -64 -26 -14 -15 -26
-31 -26 -36 0 -5 -13 -23 -29 -39 -26 -26 -32 -28 -59 -18 -17 6 -42 25 -56
44 -19 25 -35 34 -69 39 -25 4 -53 16 -62 26 -10 11 -23 20 -29 20 -7 0 -35
15 -64 33 -48 31 -50 35 -37 53 19 25 19 43 -2 66 -9 10 -14 21 -11 24 7 6
260 113 270 114 4 0 9 -8 13 -18z m-925 -222 c-12 -23 -20 -53 -18 -67 2 -20
-3 -27 -29 -38 -18 -8 -33 -11 -33 -8 0 4 10 37 22 75 17 54 27 69 47 76 14 5
27 8 29 7 2 -2 -6 -22 -18 -45z m1117 14 c-3 -3 -12 -4 -19 -1 -8 3 -5 6 6 6
11 1 17 -2 13 -5z m-873 -175 c17 5 78 8 136 7 105 -2 107 -2 210 -53 123 -59
161 -68 375 -88 214 -20 252 -19 264 2 8 16 11 14 22 -10 19 -43 57 -47 90
-10 25 29 28 30 43 14 13 -12 38 -16 113 -17 95 -2 96 -2 120 -33 27 -34 60
-39 142 -20 24 5 94 11 155 13 l111 3 92 -86 c51 -47 93 -89 93 -92 0 -7 -202
-69 -225 -69 -9 0 -28 9 -42 20 -18 14 -41 20 -78 20 -35 0 -57 5 -65 15 -8 9
-30 15 -59 15 -26 0 -56 6 -67 14 -11 8 -42 17 -69 21 -28 5 -66 16 -85 26
-19 11 -46 19 -60 19 -14 0 -64 10 -111 22 -75 19 -89 20 -104 8 -11 -9 -14
-22 -10 -37 4 -18 0 -25 -20 -33 -50 -19 -24 -54 65 -85 24 -9 56 -16 70 -17
27 -1 130 -39 130 -49 0 -9 -84 -2 -127 11 -74 22 -112 -22 -52 -59 32 -19
136 -48 194 -53 20 -2 -70 -34 -260 -92 l-291 -88 -494 357 c-272 197 -503
365 -513 374 -18 15 -16 17 39 42 l58 25 90 -23 c68 -18 97 -21 120 -14z
m1412 -404 c16 -8 47 -15 69 -15 22 0 49 -7 59 -15 12 -9 42 -15 72 -15 62 0
78 -14 32 -29 -266 -83 -269 -83 -315 -71 -59 17 -62 27 -7 26 76 -2 80 45 6
78 -37 17 -38 20 -28 43 10 21 16 24 47 19 20 -3 49 -13 65 -21z"/>
</g>
</svg>
